<svg width="24" height="24" viewBox="0 0 24 24" fill="none" xmlns="http://www.w3.org/2000/svg">
<path d="M16.7919 21.5H20.75C21.1478 21.5 21.5294 21.342 21.8107 21.0607C22.092 20.7794 22.25 20.3978 22.25 20V16.4703C22.2494 16.3473 22.2185 16.2264 22.1601 16.1181C22.1017 16.0099 22.0176 15.9176 21.9151 15.8496C21.8127 15.7815 21.6951 15.7397 21.5727 15.7277C21.4502 15.7158 21.3268 15.7342 21.2131 15.7812C20.9473 15.891 20.6626 15.9474 20.375 15.9472C19.1347 15.9472 18.125 14.9066 18.125 13.6287C18.125 12.3509 19.1347 11.3103 20.375 11.3103C20.6626 11.3101 20.9473 11.3665 21.2131 11.4763C21.3274 11.5235 21.4515 11.5419 21.5745 11.5296C21.6975 11.5173 21.8156 11.4748 21.9182 11.4058C22.0209 11.3369 22.1049 11.2437 22.1627 11.1344C22.2206 11.0252 22.2506 10.9033 22.25 10.7797V7.25C22.25 6.85218 22.092 6.47064 21.8107 6.18934C21.5294 5.90804 21.1478 5.75 20.75 5.75H17.3544C17.3683 5.62549 17.3752 5.50029 17.375 5.375C17.375 4.47989 17.0194 3.62145 16.3865 2.98851C15.7535 2.35558 14.8951 2 14 2C13.1049 2 12.2464 2.35558 11.6135 2.98851C10.9806 3.62145 10.625 4.47989 10.625 5.375C10.6248 5.50029 10.6317 5.62549 10.6456 5.75H7.25C6.85217 5.75 6.47064 5.90804 6.18934 6.18934C5.90803 6.47064 5.75 6.85218 5.75 7.25V10.2706C5.62549 10.2567 5.50029 10.2498 5.375 10.25C4.47989 10.25 3.62145 10.6056 2.98851 11.2385C2.35558 11.8715 2 12.7299 2 13.625C2 14.5201 2.35558 15.3785 2.98851 16.0115C3.62145 16.6444 4.47989 17 5.375 17C5.50029 17.0002 5.62549 16.9933 5.75 16.9794V20C5.75 20.3978 5.90803 20.7794 6.18934 21.0607C6.47064 21.342 6.85217 21.5 7.25 21.5H11.2081" fill="#0E2B4F"/>
<path d="M16.7919 21.5H20.75C21.1478 21.5 21.5294 21.342 21.8107 21.0607C22.092 20.7794 22.25 20.3978 22.25 20V16.4703C22.2494 16.3473 22.2185 16.2264 22.1601 16.1181C22.1017 16.0099 22.0176 15.9176 21.9151 15.8496C21.8127 15.7815 21.6951 15.7397 21.5727 15.7277C21.4502 15.7158 21.3268 15.7342 21.2131 15.7812C20.9473 15.891 20.6626 15.9474 20.375 15.9472C19.1347 15.9472 18.125 14.9066 18.125 13.6287C18.125 12.3509 19.1347 11.3103 20.375 11.3103C20.6626 11.3101 20.9473 11.3665 21.2131 11.4763C21.3274 11.5235 21.4515 11.5419 21.5745 11.5296C21.6975 11.5173 21.8156 11.4748 21.9182 11.4058C22.0209 11.3369 22.1049 11.2437 22.1627 11.1344C22.2206 11.0252 22.2506 10.9033 22.25 10.7797V7.25C22.25 6.85218 22.092 6.47064 21.8107 6.18934C21.5294 5.90804 21.1478 5.75 20.75 5.75H17.3544C17.3683 5.62549 17.3752 5.50029 17.375 5.375C17.375 4.47989 17.0194 3.62145 16.3865 2.98851C15.7535 2.35558 14.8951 2 14 2C13.1049 2 12.2464 2.35558 11.6135 2.98851C10.9806 3.62145 10.625 4.47989 10.625 5.375C10.6248 5.50029 10.6317 5.62549 10.6456 5.75H7.25C6.85217 5.75 6.47064 5.90804 6.18934 6.18934C5.90803 6.47064 5.75 6.85218 5.75 7.25V10.2706C5.62549 10.2567 5.50029 10.2498 5.375 10.25C4.47989 10.25 3.62145 10.6056 2.98851 11.2385C2.35558 11.8715 2 12.7299 2 13.625C2 14.5201 2.35558 15.3785 2.98851 16.0115C3.62145 16.6444 4.47989 17 5.375 17C5.50029 17.0002 5.62549 16.9933 5.75 16.9794V20C5.75 20.3978 5.90803 20.7794 6.18934 21.0607C6.47064 21.342 6.85217 21.5 7.25 21.5H11.2081" stroke="#FBFBFB"/>
</svg>
